<svg xmlns="http://www.w3.org/2000/svg" viewBox="0 0 512 512">
  <rect width="512" height="512" rx="80" fill="#27292D"/>
  <g transform="translate(256,232)" fill="none" stroke="#FF8514" stroke-width="15" stroke-linecap="round" stroke-linejoin="round">

    <!-- Left hemisphere with brain bumps (gyri) on outer edge -->
    <path d="M0,-178 C-30,-192 -72,-192 -105,-172 C-135,-155 -158,-128 -165,-98 Q-230,-70 -165,-45 Q-230,-15 -165,15 Q-230,42 -162,70 C-150,88 -145,115 -125,130 C-100,142 -60,148 -28,142 C-14,138 0,133 0,128 L0,-178 Z"/>

    <!-- Right hemisphere with brain bumps (gyri) on outer edge -->
    <path d="M0,-178 C30,-192 72,-192 105,-172 C135,-155 158,-128 165,-98 Q230,-70 165,-45 Q230,-15 165,15 Q230,42 162,70 C150,88 145,115 125,130 C100,142 60,148 28,142 C14,138 0,133 0,128 L0,-178 Z"/>

    <!-- Center divide -->
    <line x1="0" y1="-178" x2="0" y2="128"/>

    <!-- Left inner folds -->
    <path d="M-26,-115 C-72,-108 -86,-76 -62,-58"/>
    <path d="M-22,-10 C-70,-3 -82,30 -60,46"/>
    <path d="M-18,72 C-52,76 -60,98 -44,110"/>

    <!-- Right inner folds -->
    <path d="M26,-115 C72,-108 86,-76 62,-58"/>
    <path d="M22,-10 C70,-3 82,30 60,46"/>
    <path d="M18,72 C52,76 60,98 44,110"/>

    <!-- Plug: stem -->
    <line x1="0" y1="128" x2="0" y2="146"/>
    <!-- Plug: oval connector -->
    <ellipse cx="0" cy="158" rx="11" ry="14"/>
    <!-- Plug: rectangular body -->
    <rect x="-20" y="170" width="40" height="28" rx="5"/>
    <!-- Plug: two prongs -->
    <line x1="-11" y1="198" x2="-11" y2="228"/>
    <line x1="11" y1="198" x2="11" y2="228"/>

  </g>
</svg>
